<?xml version="1.0" encoding="UTF-8"?>
<svg width="38px" height="29px" viewBox="0 0 38 29" version="1.1" xmlns="http://www.w3.org/2000/svg" xmlns:xlink="http://www.w3.org/1999/xlink">
    <!-- Generator: Sketch 49.1 (51147) - http://www.bohemiancoding.com/sketch -->
    <title>Contact Us Icon</title>
    <desc>Created with Sketch.</desc>
    <defs></defs>
    <g id="Welcome" stroke="none" stroke-width="1" fill="none" fill-rule="evenodd">
        <g id="Fuller-Page" transform="translate(-159.000000, -408.000000)" fill="#FFFFFF" fill-rule="nonzero">
            <g id="Top-Part" transform="translate(-1122.000000, 81.000000)">
                <g id="Group-3" transform="translate(1273.000000, 314.000000)">
                    <g id="Contact-Us-Icon" transform="translate(8.000000, 13.000000)">
                        <path d="M2.93015644,19.5300032 C1.52229624,15.624141 1.51944978,11.3838119 2.93015644,7.46983716 C3.12719487,6.92330395 2.89302592,6.30034149 2.40703994,6.07859703 C1.92099071,5.85685257 1.36738545,6.12036982 1.17034701,6.66704535 C-0.38837568,10.9912047 -0.391854689,15.9990998 1.17034701,20.3329374 C1.36751196,20.8799687 1.92149675,21.143059 2.40703994,20.9213857 C2.89308917,20.6996412 3.12719487,20.0767499 2.93015644,19.5300032 Z" id="Shape"></path>
                        <path d="M36.8298412,6.66704125 C36.6328359,6.12036908 36.0790707,5.85685345 35.5933561,6.07859655 C35.1073885,6.30026848 34.8733222,6.92322712 35.0703275,7.46997045 C36.4779511,11.3758086 36.4807971,15.6161117 35.0703275,19.5300624 C34.8176041,20.2313001 35.2772621,21 35.9497998,21 C36.3249004,21 36.6802057,20.7480839 36.8298412,20.3329205 C38.3814716,16.0276458 38.3986107,11.0197814 36.8298412,6.66704125 Z" id="Shape"></path>
                        <path d="M33.0088351,8.67961833 C32.7928744,8.12299462 32.1851857,7.85438964 31.6519135,8.07974835 C31.1184331,8.30510707 30.8610991,8.93909596 31.0770597,9.49571966 C32.2137167,12.425238 32.2162158,15.56838 31.0770597,18.504273 C30.7995944,19.2194664 31.3060016,20 32.0426003,20 C32.4545291,20 32.84473,19.7432751 33.0088351,19.3203743 C34.3290343,15.9171753 34.3317416,12.089844 33.0088351,8.67961833 Z" id="Shape"></path>
                        <path d="M7.92355224,9.4956937 C8.13955811,8.93899955 7.88217021,8.30508536 7.34857808,8.07972746 C6.81519424,7.85444199 6.2073783,8.12290114 5.99137243,8.67959529 C4.67089681,12.0828546 4.66818893,15.9101722 5.99137243,19.3203857 C6.20744774,19.8772247 6.81526368,20.145539 7.34857808,19.9202535 C7.88217021,19.6948956 8.13955811,19.060909 7.92355224,18.5042872 C6.78665731,15.5747069 6.78415772,12.4315762 7.92355224,9.4956937 Z" id="Shape"></path>
                        <path d="M25.6911957,0 L12.3088043,0 C10.4843035,0 9,1.50112227 9,3.34613098 L9,25.653869 C9,27.498952 10.4843035,29 12.3088043,29 L25.6911957,29 C27.5156965,29 29,27.498952 29,25.653869 L29,3.34620529 C29,1.50112227 27.5156965,0 25.6911957,0 Z M11.2058451,3.34620529 C11.2058451,2.73117762 11.7005639,2.23080353 12.3088043,2.23080353 L25.6911957,2.23080353 C26.2993626,2.23080353 26.7941549,2.73117762 26.7941549,3.34620529 L26.7941549,4.46160705 L11.2058451,4.46160705 L11.2058451,3.34620529 Z M11.2058451,6.69233627 L26.7940814,6.69233627 L26.7940814,22.307738 L11.2058451,22.307738 L11.2058451,6.69233627 Z M26.7941549,25.6539433 C26.7941549,26.268971 26.2993626,26.7693451 25.6911957,26.7693451 L12.3088043,26.7693451 C11.7006374,26.7693451 11.2058451,26.268971 11.2058451,25.6539433 L11.2058451,24.5385416 L26.7941549,24.5385416 L26.7941549,25.6539433 Z" id="Shape"></path>
                    </g>
                </g>
            </g>
        </g>
    </g>
</svg>