<?xml version="1.0" encoding="UTF-8"?>
<svg width="46px" height="46px" viewBox="0 0 46 46" version="1.1" xmlns="http://www.w3.org/2000/svg" xmlns:xlink="http://www.w3.org/1999/xlink">
    <!-- Generator: Sketch 49.1 (51147) - http://www.bohemiancoding.com/sketch -->
    <title>electricity-icon</title>
    <desc>Created with Sketch.</desc>
    <defs></defs>
    <g id="Symbols" stroke="none" stroke-width="1" fill="none" fill-rule="evenodd">
        <g id="electricity-icon" fill="#FFFFFF" fill-rule="nonzero">
            <g id="Shape">
                <path d="M5.59757473,14.4814815 L1.21724008,14.4814815 C0.544937531,14.4814815 0,14.862841 0,15.3333333 C0,15.8038257 0.544937531,16.1851852 1.21724008,16.1851852 L5.59747646,16.1851852 C6.26987728,16.1851852 6.81481481,15.8038257 6.81481481,15.3333333 C6.81481481,14.862841 6.26987728,14.4814815 5.59757473,14.4814815 Z"></path>
                <path d="M44.7827599,14.4814815 L40.4024253,14.4814815 C39.730221,14.4814815 39.1851852,14.862841 39.1851852,15.3333333 C39.1851852,15.8038257 39.730221,16.1851852 40.4024253,16.1851852 L44.7827599,16.1851852 C45.4549642,16.1851852 46,15.8038257 46,15.3333333 C46,14.862841 45.4549642,14.4814815 44.7827599,14.4814815 Z"></path>
                <path d="M9.04616994,29.287162 C8.61390269,28.8548966 7.91308819,28.8548966 7.48073158,29.287162 L4.58345969,32.1844212 C4.15119245,32.6166866 4.15119245,33.317498 4.58345969,33.7498527 C4.799638,33.9660301 5.08293078,34.0740741 5.36613419,34.0740741 C5.6493376,34.0740741 5.93271975,33.9660301 6.14880869,33.7498527 L9.04616994,30.8525935 C9.47843718,30.4204175 9.47843718,29.7195167 9.04616994,29.287162 Z"></path>
                <path d="M38.0589673,0.274436467 C37.6929821,-0.0914788222 37.0999014,-0.0914788222 36.7338405,0.274436467 L34.3485063,2.65980775 C33.9825967,3.02572304 33.9825967,3.61903989 34.3485063,3.98487953 C34.5315745,4.1677237 34.7713789,4.25925926 35.0111075,4.25925926 C35.2509875,4.25925926 35.4906405,4.1677237 35.6736331,3.98480388 L38.0588917,1.59950825 C38.4248013,1.23359296 38.4248013,0.640276107 38.0589673,0.274436467 Z"></path>
                <path d="M11.651477,2.65911186 L9.26670881,0.274403409 C8.9006887,-0.0914678031 8.30720187,-0.0914678031 7.94118175,0.274403409 C7.57516164,0.640425964 7.57516164,1.23391674 7.94118175,1.5999393 L10.32595,3.98472343 C10.5089979,4.16769687 10.7488746,4.25925926 10.9886757,4.25925926 C11.2284768,4.25925926 11.4684292,4.16769687 11.6514014,3.98472343 C12.0174215,3.61870087 12.0174215,3.02521009 11.651477,2.65911186 Z"></path>
                <path d="M39.766302,31.644374 L37.3557877,29.2336834 C36.994733,28.8727104 36.4096422,28.8727104 36.0485129,29.233758 C35.6875328,29.594731 35.6875328,30.1800341 36.0485129,30.5409325 L38.4591017,32.9514738 C38.6396291,33.1319976 38.8762028,33.2222222 39.1127018,33.2222222 C39.3493502,33.2222222 39.5857746,33.131923 39.766302,32.9514738 C40.1272821,32.5905755 40.1272821,32.0052723 39.766302,31.644374 Z"></path>
                <path d="M23.4259259,3.40740741 C15.67563,3.40740741 9.37037037,9.89698559 9.37037037,17.8738645 C9.37037037,21.5823221 10.7203922,25.5741005 13.0744016,28.825612 C14.8823033,31.3226995 15.8377882,34.1010599 15.8377882,36.8604551 L15.8377882,43.7943359 C15.8377882,45.0105141 16.8434047,46 18.0794089,46 L28.7725334,46 C30.0085377,46 31.0141541,45.0105141 31.0141541,43.7943359 L31.0141541,36.8604551 C31.0141541,34.1011489 31.9696391,31.3226995 33.7773598,28.825612 C36.1313692,25.5741896 37.4814815,21.5823221 37.4814815,17.8738645 C37.4813005,9.89698559 31.1760409,3.40740741 23.4259259,3.40740741 Z M28.7723524,43.7945139 L18.079228,43.7945139 L18.079228,42.3519996 L23.4258354,42.3519996 C24.0448782,42.3519996 24.5467363,41.8582806 24.5467363,41.2491675 C24.5467363,40.6400545 24.0448782,40.1463355 23.4258354,40.1463355 L18.079228,40.1463355 L18.079228,38.7039102 L28.7726239,38.7039102 L28.7738908,43.7943359 C28.7738908,43.7945139 28.7733478,43.7945139 28.7723524,43.7945139 Z M21.8541129,23.2189406 L20.3552349,20.0681317 L26.496436,20.0681317 L24.9977389,23.2189406 C24.9387394,23.3429713 24.9037197,23.4767963 24.8943992,23.6133816 L24.0252418,36.4982461 L22.8265195,36.4982461 L21.9573621,23.6133816 C21.9481321,23.4767963 21.913022,23.3429713 21.8541129,23.2189406 Z M31.9515411,27.5459493 C29.9496286,30.311132 28.8560558,33.3987234 28.7769674,36.4982461 L26.2718395,36.4982461 L27.1171075,23.9661525 L29.2735771,19.4327523 C29.4360973,19.0912002 29.4099457,18.691506 29.2041712,18.373282 C28.9984872,18.0551471 28.6417752,17.8623785 28.2584592,17.8623785 L18.5931212,17.8623785 C18.2098052,17.8623785 17.8531837,18.0551471 17.6474092,18.373282 C17.4417252,18.6914169 17.4154831,19.0911112 17.5780033,19.4326632 L19.7345633,23.9660634 L20.5798313,36.498157 L18.0745225,36.498157 C17.9954341,33.3985454 16.9019518,30.3110429 14.8999488,27.5458603 C12.8409371,24.7017894 11.6117196,21.086021 11.6117196,17.8737755 C11.6117196,11.1130748 16.9114532,5.61298251 23.4256545,5.61298251 C29.9398557,5.61298251 35.2395893,11.1130748 35.2395893,17.8737755 C35.2397703,21.086199 34.0105528,24.7019675 31.9515411,27.5459493 Z"></path>
            </g>
        </g>
    </g>
</svg>