<?xml version="1.0" encoding="iso-8859-1"?>
<!-- Generator: Adobe Illustrator 19.0.0, SVG Export Plug-In . SVG Version: 6.00 Build 0)  -->
<svg version="1.1" id="Layer_1" xmlns="http://www.w3.org/2000/svg" xmlns:xlink="http://www.w3.org/1999/xlink" x="0px" y="0px"
	 viewBox="0 0 512 512" style="enable-background:new 0 0 512 512;" xml:space="preserve">
<path style="fill:#E8EDEE;" d="M370.759,150.069c0-63.559-51.2-114.759-114.759-114.759s-114.759,51.2-114.759,114.759
	S192.441,264.828,256,264.828S370.759,213.628,370.759,150.069"/>
<path style="fill:#FFFFFF;" d="M335.448,150.069c0-44.138-35.31-79.448-79.448-79.448s-79.448,35.31-79.448,79.448
	s35.31,79.448,79.448,79.448S335.448,194.207,335.448,150.069"/>
<g>
	<path style="fill:#C7CBC7;" d="M176.552,335.448H17.655C7.945,335.448,0,343.393,0,353.103v88.276
		c0,9.71,7.945,17.655,17.655,17.655h158.897V335.448z"/>
	<path style="fill:#C7CBC7;" d="M335.448,335.448v123.586h158.897c9.71,0,17.655-7.945,17.655-17.655v-88.276
		c0-9.71-7.945-17.655-17.655-17.655H335.448z"/>
</g>
<path style="fill:#E15649;" d="M201.269,207.448c14.124,13.241,33.545,22.069,54.731,22.069s40.607-8.828,54.731-22.069
	c-14.124-13.241-33.545-22.069-54.731-22.069S215.393,194.207,201.269,207.448"/>
<path style="fill:#556080;" d="M256,158.897c-2.648,0-4.414-0.883-6.179-2.648c-3.531-3.531-3.531-8.828,0-12.359l26.483-26.483
	c3.531-3.531,8.828-3.531,12.359,0c3.531,3.531,3.531,8.828,0,12.359l-26.483,26.483C260.414,158.014,258.648,158.897,256,158.897"
	/>
<g>
	<path style="fill:#949493;" d="M176.552,379.586h-70.621c-5.297,0-8.828-3.531-8.828-8.828s3.531-8.828,8.828-8.828h70.621
		c5.297,0,8.828,3.531,8.828,8.828S181.848,379.586,176.552,379.586"/>
	<path style="fill:#949493;" d="M79.448,370.759c0-5.297-3.531-8.828-8.828-8.828s-8.828,3.531-8.828,8.828s3.531,8.828,8.828,8.828
		S79.448,376.055,79.448,370.759"/>
	<path style="fill:#949493;" d="M423.724,379.586h-88.276c-5.297,0-8.828-3.531-8.828-8.828s3.531-8.828,8.828-8.828h88.276
		c5.297,0,8.828,3.531,8.828,8.828S429.021,379.586,423.724,379.586"/>
	<path style="fill:#949493;" d="M467.862,370.759c0-5.297-3.531-8.828-8.828-8.828s-8.828,3.531-8.828,8.828
		s3.531,8.828,8.828,8.828S467.862,376.055,467.862,370.759"/>
</g>
<path style="fill:#C7CBC7;" d="M256,264.828c-8.828,0-17.655-0.883-26.483-3.531v56.497h52.966v-56.497
	C273.655,263.945,264.828,264.828,256,264.828"/>
<g>
	<path style="fill:#556080;" d="M334.566,141.241h-16.772c-5.297,0-8.828,3.531-8.828,8.828s3.531,8.828,8.828,8.828h16.772
		c0-2.648,0.883-6.179,0.883-8.828C335.448,147.421,335.448,143.89,334.566,141.241"/>
	<path style="fill:#556080;" d="M256,70.621c-2.648,0-6.179,0-8.828,0.883v16.772c0,5.297,3.531,8.828,8.828,8.828
		c5.297,0,8.828-3.531,8.828-8.828V71.503C262.179,70.621,258.648,70.621,256,70.621"/>
	<path style="fill:#556080;" d="M194.207,141.241h-16.772c0,2.648-0.883,6.179-0.883,8.828c0,2.648,0,6.179,0.883,8.828h16.772
		c5.297,0,8.828-3.531,8.828-8.828S199.503,141.241,194.207,141.241"/>
</g>
<g>
	<path style="fill:#949493;" d="M317.793,476.69H194.207c-9.71,0-17.655-7.945-17.655-17.655V335.448
		c0-9.71,7.945-17.655,17.655-17.655h123.586c9.71,0,17.655,7.945,17.655,17.655v123.586
		C335.448,468.745,327.503,476.69,317.793,476.69"/>
	<path style="fill:#949493;" d="M494.345,361.931c-5.297,0-8.828,3.531-8.828,8.828s3.531,8.828,8.828,8.828H512v-17.655H494.345z"
		/>
	<path style="fill:#949493;" d="M35.31,379.586c5.297,0,8.828-3.531,8.828-8.828s-3.531-8.828-8.828-8.828H0v17.655H35.31z"/>
</g>
<g>
</g>
<g>
</g>
<g>
</g>
<g>
</g>
<g>
</g>
<g>
</g>
<g>
</g>
<g>
</g>
<g>
</g>
<g>
</g>
<g>
</g>
<g>
</g>
<g>
</g>
<g>
</g>
<g>
</g>
</svg>
