<?xml version="1.0" encoding="UTF-8"?>
<svg width="29px" height="23px" viewBox="0 0 29 23" version="1.1" xmlns="http://www.w3.org/2000/svg" xmlns:xlink="http://www.w3.org/1999/xlink">
    <!-- Generator: Sketch 49.1 (51147) - http://www.bohemiancoding.com/sketch -->
    <title>Join US Icon</title>
    <desc>Created with Sketch.</desc>
    <defs></defs>
    <g id="Welcome" stroke="none" stroke-width="1" fill="none" fill-rule="evenodd">
        <g id="Fuller-Page" transform="translate(-48.000000, -411.000000)" fill="#FFFFFF" fill-rule="nonzero">
            <g id="Top-Part" transform="translate(-1122.000000, 81.000000)">
                <g id="Group-2" transform="translate(1157.000000, 314.000000)">
                    <g id="Join-US-Icon" transform="translate(13.000000, 16.000000)">
                        <path d="M27.9924567,1.02844022 C26.6489366,-0.342813405 24.4628108,-0.342813405 23.1192906,1.02844022 L10.3923944,14.0185425 L5.8808062,9.41353715 C4.53728605,8.04228353 2.35116027,8.04228353 1.00764011,9.41353715 C-0.335880038,10.7848567 -0.335880038,13.0162166 1.00764011,14.3875361 L8.77775539,22.3184263 C9.22294817,22.7728307 9.80767128,23 10.3923944,23 C10.9771821,23 11.5619052,22.7728307 12.007098,22.3184263 L27.9924567,6.00230734 C29.3358478,4.63105372 29.3358478,2.39982564 27.9924567,1.02844022 Z M26.7433342,4.7274046 L10.7579109,21.0436553 C10.5564604,21.2492742 10.2284576,21.2492742 10.027007,21.0436553 L2.25689174,13.1126992 C1.60211292,12.4443721 1.60211292,11.3570306 2.25689174,10.6887035 C2.58424887,10.3544411 3.01420373,10.1874417 3.44428773,10.1874417 C3.87437172,10.1874417 4.30439115,10.354507 4.63168371,10.6887035 L9.2729234,15.4259771 C9.57199998,15.7311761 9.9696711,15.89923 10.392459,15.89923 C10.8154405,15.89923 11.2131117,15.7311102 11.5121237,15.4259112 L24.3684777,2.30340886 C25.0230628,1.63508171 26.0885554,1.63508171 26.7433342,2.30340886 C27.3980485,2.97173601 27.3980485,4.05907745 26.7433342,4.7274046 Z" id="Shape"></path>
                    </g>
                </g>
            </g>
        </g>
    </g>
</svg>