<?xml version="1.0" encoding="UTF-8"?>
<svg width="32px" height="46px" viewBox="0 0 32 46" version="1.1" xmlns="http://www.w3.org/2000/svg" xmlns:xlink="http://www.w3.org/1999/xlink">
    <!-- Generator: Sketch 49.1 (51147) - http://www.bohemiancoding.com/sketch -->
    <title>LPG Icon</title>
    <desc>Created with Sketch.</desc>
    <defs></defs>
    <g id="Symbols" stroke="none" stroke-width="1" fill="none" fill-rule="evenodd">
        <g id="LPG-Icon" fill="#FFFFFF">
            <g>
                <path d="M24.4460421,42.0571429 L7.10062861,42.0571429 L6.9191953,41.9451474 C2.58765779,39.2268764 0,34.7186808 0,29.8893738 L0,22.0268071 C0,17.197743 2.58785336,12.6913455 6.92115098,9.97103345 L7.1006775,9.85714286 L24.4421796,9.85714286 L24.6217062,9.97103345 C28.9570572,12.6911997 31.5428571,17.1975 31.5428571,22.0268071 L31.5428571,29.8893738 C31.5428571,34.7184379 28.9550038,39.2248354 24.6236618,41.9451474 L24.4460421,42.0571429 Z M7.53038926,40.5879411 L24.0143258,40.5879411 C27.8072691,38.129747 30.0647103,34.1453015 30.0647103,29.887464 L30.0647103,22.0268411 C30.0647103,17.7710446 27.8072691,13.7866963 24.0104144,11.326364 L7.53038926,11.326364 C3.73553919,13.7845581 1.47609337,17.7709475 1.47609337,22.0268411 L1.47609337,29.8894078 C1.47800016,34.1452043 3.73544141,38.1295527 7.53038926,40.5879411 Z" id="Fill-1"></path>
                <path d="M24.9714286,46 L6.57142857,46 L6.57142857,40.7428571 L24.9714286,40.7428571 L24.9714286,46 Z M8.05625813,44.4895524 L23.4841431,44.4895524 L23.4841431,42.2531049 L8.05625813,42.2531049 L8.05625813,44.4895524 Z" id="Fill-2"></path>
                <path d="M24.9714286,11.1714286 L6.57142857,11.1714286 L6.57142857,6.08975974 L9.45548869,6.08975974 L9.45548869,0 L22.0835369,0 L22.0835369,6.08833856 L24.9714286,6.08833856 L24.9695128,11.1714286 L24.9714286,11.1714286 Z M8.0564216,9.73916256 L23.4839892,9.73916256 L23.4839892,7.52226262 L20.5960975,7.52226262 L20.5960975,1.43250288 L10.9404817,1.43250288 L10.9404817,7.52084144 L8.0564216,7.52084144 L8.0564216,9.73916256 Z" id="Fill-3"></path>
                <polygon id="Fill-4" points="1.97142857 17.0857143 29.5714286 17.0857143 29.5714286 15.7714286 1.97142857 15.7714286"></polygon>
                <polygon id="Fill-5" points="0.657142857 19.0571429 29.5714286 19.0571429 29.5714286 17.7428571 0.657142857 17.7428571"></polygon>
                <polygon id="Fill-6" points="1.97142857 35.4857143 29.5714286 35.4857143 29.5714286 34.1714286 1.97142857 34.1714286"></polygon>
                <polygon id="Fill-7" points="0.657142857 33.5142857 29.5714286 33.5142857 29.5714286 32.2 0.657142857 32.2"></polygon>
                <path d="M15.1142857,7.88571429 C13.6641949,7.88571429 12.4857143,6.70541113 12.4857143,5.25714286 C12.4857143,3.80887458 13.6641469,2.62857143 15.1142857,2.62857143 C16.562506,2.62857143 17.7428571,3.80887458 17.7428571,5.25714286 C17.7428571,6.70541113 16.5606835,7.88571429 15.1142857,7.88571429 Z M15.1142857,4.07871023 C14.4622868,4.07871023 13.9358531,4.60706244 13.9358531,5.25714286 C13.9358531,5.90722327 14.4623348,6.43557548 15.1142857,6.43557548 C15.7625436,6.43557548 16.2927183,5.90722327 16.2927183,5.25714286 C16.2927183,4.60706244 15.7624956,4.07871023 15.1142857,4.07871023 Z" id="Fill-8"></path>
                <polygon id="Fill-9" points="14.4571429 10.5142857 15.7714286 10.5142857 15.7714286 7.22857143 14.4571429 7.22857143"></polygon>
                <path d="M14.95186,31.5426439 C13.5021219,31.5426439 12.7564733,30.8763605 12.3883849,30.3166288 C11.1123254,28.3798552 12.395938,24.9478856 12.5469524,24.5626331 L12.8716309,23.7259362 L13.6135102,24.2082009 C14.0722169,24.5064666 14.304407,24.539394 14.3817747,24.539394 C14.5931948,24.4096279 14.6875776,23.4722398 14.5365632,22.6045541 L14.1477,20.3714286 L15.7541064,21.9266684 C17.883385,23.9854635 18.9461879,27.3960632 18.119354,29.5285868 C17.6210307,30.8281816 16.4940527,31.5428571 14.9518213,31.5428571 L14.95186,31.5426439 Z M13.649367,25.9007036 C13.3435641,26.9814433 13.0490788,28.6451687 13.6002885,29.4799319 C13.6908972,29.6193814 13.9721608,30.0454647 14.9499947,30.0454647 C15.8919378,30.0454647 16.4828027,29.6968385 16.7621672,28.9783104 C17.1963348,27.8549797 16.8282366,26.0944207 15.9636998,24.593374 C15.8844185,24.9265058 15.7522797,25.2422045 15.5502974,25.4920484 C15.1123557,26.0265924 14.432791,26.18347 13.6494008,25.9007135 L13.649367,25.9007036 Z" id="Fill-10"></path>
            </g>
        </g>
    </g>
</svg>