<?xml version="1.0" encoding="iso-8859-1"?>
<!-- Generator: Adobe Illustrator 19.0.0, SVG Export Plug-In . SVG Version: 6.00 Build 0)  -->
<svg version="1.1" id="Capa_1" xmlns="http://www.w3.org/2000/svg" xmlns:xlink="http://www.w3.org/1999/xlink" x="0px" y="0px"
	 viewBox="0 0 512 512" style="enable-background:new 0 0 512 512;" xml:space="preserve">
<path style="fill:#303C42;" d="M341.333,98.286V21.333H352c5.896,0,10.667-4.771,10.667-10.667S357.896,0,352,0H160
	c-5.896,0-10.667,4.771-10.667,10.667S154.104,21.333,160,21.333h10.667v76.953c-37.932,19.462-64,58.895-64,104.38V448
	c0,20.375,14.365,37.469,33.49,41.677c4.115,12.927,16.24,22.323,30.51,22.323h170.667c14.271,0,26.396-9.396,30.51-22.323
	c19.125-4.208,33.49-21.302,33.49-41.677V202.667C405.333,157.181,379.266,117.749,341.333,98.286z M320,89.882
	c-10.189-2.896-20.896-4.548-32-4.548h-21.333V64h10.667C283.229,64,288,59.229,288,53.333s-4.771-10.667-10.667-10.667h-42.667
	c-5.896,0-10.667,4.771-10.667,10.667S228.771,64,234.667,64h10.667v21.333H224c-11.104,0-21.811,1.652-32,4.548V21.333h128V89.882z
	"/>
<path style="fill:#546E7A;" d="M384,448c0,11.76-9.573,21.333-21.333,21.333c-5.896,0-10.667,4.771-10.667,10.667
	c0,5.885-4.781,10.667-10.667,10.667H170.667c-5.885,0-10.667-4.781-10.667-10.667c0-5.896-4.771-10.667-10.667-10.667
	C137.573,469.333,128,459.76,128,448V202.667c0-52.938,43.063-96,96-96h64c52.938,0,96,43.063,96,96V448z"/>
<path style="opacity:0.2;fill:#FFFFFF;enable-background:new    ;" d="M192,480c0-5.896-3.181-10.667-7.111-10.667
	c-7.841,0-14.223-9.573-14.223-21.333V202.667c0-52.938,28.708-96,64-96H224c-52.938,0-96,43.063-96,96V448
	c0,11.76,9.573,21.333,21.333,21.333c5.896,0,10.667,4.771,10.667,10.667c0,5.885,4.781,10.667,10.667,10.667h28.444
	C195.188,490.667,192,485.885,192,480z"/>
<path style="opacity:0.1;enable-background:new    ;" d="M288,106.667h-10.667c35.292,0,64,43.063,64,96V448
	c0,11.76-6.382,21.333-14.223,21.333c-3.93,0-7.111,4.771-7.111,10.667c0,5.885-3.188,10.667-7.111,10.667h28.444
	c5.885,0,10.667-4.781,10.667-10.667c0-5.896,4.771-10.667,10.667-10.667c11.76,0,21.333-9.573,21.333-21.333V202.667
	C384,149.729,340.938,106.667,288,106.667z"/>
<g>
	<path style="fill:#303C42;" d="M224,448h-21.333c-5.896,0-10.667,4.771-10.667,10.667c0,5.896,4.771,10.667,10.667,10.667H224
		c5.896,0,10.667-4.771,10.667-10.667C234.667,452.771,229.896,448,224,448z"/>
	<path style="fill:#303C42;" d="M309.333,448H288c-5.896,0-10.667,4.771-10.667,10.667c0,5.896,4.771,10.667,10.667,10.667h21.333
		c5.896,0,10.667-4.771,10.667-10.667C320,452.771,315.229,448,309.333,448z"/>
</g>
<linearGradient id="SVGID_1_" gradientUnits="userSpaceOnUse" x1="-43.2324" y1="638.5264" x2="-25.3116" y2="630.1705" gradientTransform="matrix(21.3333 0 0 -21.3333 996.3334 13791.667)">
	<stop  offset="0" style="stop-color:#FFFFFF;stop-opacity:0.2"/>
	<stop  offset="1" style="stop-color:#FFFFFF;stop-opacity:0"/>
</linearGradient>
<path style="fill:url(#SVGID_1_);" d="M341.333,98.286V21.333H352c5.896,0,10.667-4.771,10.667-10.667S357.896,0,352,0H160
	c-5.896,0-10.667,4.771-10.667,10.667S154.104,21.333,160,21.333h10.667v76.953c-37.932,19.462-64,58.895-64,104.38V448
	c0,20.375,14.365,37.469,33.49,41.677c4.115,12.927,16.24,22.323,30.51,22.323h170.667c14.271,0,26.396-9.396,30.51-22.323
	c19.125-4.208,33.49-21.302,33.49-41.677V202.667C405.333,157.181,379.266,117.749,341.333,98.286z M320,89.882
	c-10.189-2.896-20.896-4.548-32-4.548h-21.333V64h10.667C283.229,64,288,59.229,288,53.333s-4.771-10.667-10.667-10.667h-42.667
	c-5.896,0-10.667,4.771-10.667,10.667S228.771,64,234.667,64h10.667v21.333H224c-11.104,0-21.811,1.652-32,4.548V21.333h128V89.882z
	"/>
<g>
</g>
<g>
</g>
<g>
</g>
<g>
</g>
<g>
</g>
<g>
</g>
<g>
</g>
<g>
</g>
<g>
</g>
<g>
</g>
<g>
</g>
<g>
</g>
<g>
</g>
<g>
</g>
<g>
</g>
</svg>
