<?xml version="1.0" encoding="UTF-8"?>
<svg width="20px" height="12px" viewBox="0 0 20 12" version="1.1" xmlns="http://www.w3.org/2000/svg" xmlns:xlink="http://www.w3.org/1999/xlink">
    <!-- Generator: Sketch 49.1 (51147) - http://www.bohemiancoding.com/sketch -->
    <title>Menu Icon</title>
    <desc>Created with Sketch.</desc>
    <defs></defs>
    <g id="Welcome" stroke="none" stroke-width="1" fill="none" fill-rule="evenodd">
        <g id="Fuller-Page" transform="translate(-320.000000, -101.000000)" fill="#999999" fill-rule="nonzero">
            <g id="Top-Part" transform="translate(-1122.000000, 81.000000)">
                <g id="Navigation-Strip" transform="translate(1122.000000, 0.000000)">
                    <g id="Menu-Icon" transform="translate(320.000000, 20.000000)">
                        <path d="M0.754716981,1 L19.245283,1 C19.6618868,1 20,0.776 20,0.5 C20,0.224 19.6618868,0 19.245283,0 L0.754716981,0 C0.338113208,0 0,0.224 0,0.5 C0,0.776 0.338113208,1 0.754716981,1 Z" id="Shape"></path>
                        <path d="M0.754716981,7 L19.245283,7 C19.6618868,7 20,6.776 20,6.5 C20,6.224 19.6618868,6 19.245283,6 L0.754716981,6 C0.338113208,6 0,6.224 0,6.5 C0,6.776 0.338113208,7 0.754716981,7 Z" id="Shape"></path>
                        <path d="M0.754716981,12 L19.245283,12 C19.6618868,12 20,11.776 20,11.5 C20,11.224 19.6618868,11 19.245283,11 L0.754716981,11 C0.338113208,11 0,11.224 0,11.5 C0,11.776 0.338113208,12 0.754716981,12 Z" id="Shape"></path>
                    </g>
                </g>
            </g>
        </g>
    </g>
</svg>