<?xml version="1.0" encoding="UTF-8"?>
<svg width="33px" height="27px" viewBox="0 0 33 27" version="1.1" xmlns="http://www.w3.org/2000/svg" xmlns:xlink="http://www.w3.org/1999/xlink">
    <!-- Generator: Sketch 49.1 (51147) - http://www.bohemiancoding.com/sketch -->
    <title>Moving Home Icon</title>
    <desc>Created with Sketch.</desc>
    <defs></defs>
    <g id="Welcome" stroke="none" stroke-width="1" fill="none" fill-rule="evenodd">
        <g id="Fuller-Page" transform="translate(-274.000000, -409.000000)" fill="#FFFFFF" fill-rule="nonzero">
            <g id="Top-Part" transform="translate(-1122.000000, 81.000000)">
                <g id="Group-4" transform="translate(1385.000000, 314.000000)">
                    <g id="Moving-Home-Icon" transform="translate(11.000000, 14.000000)">
                        <path d="M32.5058233,9.39374904 L27.7287819,3.99376222 C27.3444437,3.60003516 26.850267,3.37499176 26.3560903,3.37499176 L20.8652596,3.37499176 L20.8652596,2.19374464 C20.8652596,0.956269638 19.9317933,0 18.7787144,0 L2.14143234,0 C0.933466315,6.59178078e-05 0,0.956269638 0,2.19381056 L0,15.7500055 L0,16.8750247 L0,21.6562411 C0,22.7249665 0.878514896,23.6250082 1.9218197,23.6250082 L2.78424812,23.6250082 C3.04645776,25.5468419 4.63438646,27 6.58908693,27 C8.5437874,27 10.1317161,25.5468419 10.3939257,23.6250082 L19.7670678,23.6250082 L20.8652596,23.6250082 L22.5513159,23.6250082 C22.8135255,25.5468419 24.4014542,27 26.3561547,27 C28.3108552,27 29.8987839,25.5468419 30.1609935,23.6250082 L32.9451129,23.6250082 L33,10.6875179 C33,10.1812691 32.8352744,9.73124821 32.5058233,9.39374904 Z M31.6273084,10.1250412 C31.792034,10.2375629 31.846921,10.4625404 31.846921,10.63129 L31.846921,12.3750137 L23.6106428,12.3750137 L23.6106428,6.75004944 L28.6072968,6.75004944 L31.6273084,10.1250412 Z M1.09819188,2.19381056 C1.09819188,1.5750401 1.5374815,1.12508514 2.14143234,1.12508514 L18.7238273,1.12508514 C19.3278425,1.12508514 19.7670678,1.63133391 19.7670678,2.19381056 L19.7670678,3.37505768 L19.7670678,15.7500055 L1.09819188,15.7500055 L1.09819188,2.19381056 Z M6.58902259,25.8749808 C5.05160543,25.8749808 3.84357506,24.6375058 3.84357506,23.0624657 C3.84357506,21.4874915 5.05154108,20.2499506 6.58902259,20.2499506 C8.12643974,20.2499506 9.33447011,21.4874256 9.33447011,23.0624657 C9.33447011,24.6375058 8.12643974,25.8749808 6.58902259,25.8749808 Z M19.7670678,22.499989 L10.3938614,22.499989 C10.1479956,20.6978621 8.73624606,19.3085124 6.9495528,19.1423996 C6.86513094,19.1356759 6.82021749,19.1318527 6.77478927,19.1296774 C6.71321022,19.1266452 6.65130944,19.1249313 6.58902259,19.1249313 C6.52673573,19.1249313 6.46483495,19.1266452 6.4032559,19.1296774 C6.35782768,19.1318527 6.31291423,19.13561 6.26793643,19.1393673 C4.44179911,19.3085124 3.03004955,20.6978621 2.78418377,22.499989 L1.9218197,22.499989 C1.48253008,22.499989 1.09819188,22.1062619 1.09819188,21.6562411 L1.09819188,16.8750247 L19.7670678,16.8750247 L19.7670678,22.499989 Z M26.3560903,25.8749808 C24.8186732,25.8749808 23.6106428,24.6375058 23.6106428,23.0624657 C23.6106428,21.4874915 24.8186088,20.2499506 26.3560903,20.2499506 C27.8935075,20.2499506 29.1015379,21.4874256 29.1015379,23.0624657 C29.1015379,24.6375058 27.8935075,25.8749808 26.3560903,25.8749808 Z M26.7166206,19.1423996 C26.7035583,19.1411471 26.6903031,19.1404879 26.6771765,19.1393673 C26.6321987,19.1356759 26.5872852,19.1318527 26.541857,19.1296774 C26.480278,19.1266452 26.4183772,19.1249313 26.3560903,19.1249313 C26.2938035,19.1249313 26.2319027,19.1266452 26.1703237,19.1296774 C26.1248954,19.1318527 26.079982,19.13561 26.0350042,19.1393673 C26.0218776,19.1404879 26.0086224,19.1411471 25.9955601,19.1423996 C24.2088669,19.3085124 22.7971173,20.6978621 22.5512515,22.499989 L20.8651953,22.499989 L20.8651953,16.8750247 L20.8651953,15.7500055 L20.8651953,4.50001099 L26.3560903,4.50001099 C26.5208159,4.50001099 26.7404285,4.61253268 26.9051541,4.72498846 L27.6921691,5.62496429 L23.4459173,5.62496429 C22.9517406,5.62496429 22.5124509,6.07498517 22.5124509,6.58123393 L22.5124509,12.5436974 C22.5124509,13.0499462 22.9517406,13.499967 23.4459173,13.499967 L31.846921,13.499967 L31.846921,16.3124821 L31.846921,17.4374355 L31.846921,22.499989 L30.1609292,22.4999231 C29.9150634,20.6978621 28.5033138,19.3085124 26.7166206,19.1423996 Z" id="Shape"></path>
                    </g>
                </g>
            </g>
        </g>
    </g>
</svg>