<?xml version="1.0" encoding="UTF-8"?>
<svg width="53px" height="46px" viewBox="0 0 53 46" version="1.1" xmlns="http://www.w3.org/2000/svg" xmlns:xlink="http://www.w3.org/1999/xlink">
    <!-- Generator: Sketch 49.1 (51147) - http://www.bohemiancoding.com/sketch -->
    <title>Natural Gas Icon</title>
    <desc>Created with Sketch.</desc>
    <defs></defs>
    <g id="Natural-Gas-Icon" stroke="none" stroke-width="1" fill="none" fill-rule="evenodd">
        <g fill="#FFFFFF">
            <path d="M20.221456,30.0182093 C19.7378967,30.0182093 19.3422669,30.4110172 19.3422669,30.8957395 L19.3422669,43.170786 C19.3422669,43.6555244 19.7379074,44.0483163 20.221456,44.0483163 L32.5197068,44.0483163 C33.0053615,44.0483163 33.3988959,43.6555137 33.3988959,43.170786 L33.3988959,30.8957395 C33.3988959,30.4110012 33.0053454,30.0182093 32.5197068,30.0182093 L20.221456,30.0182093 Z M32.5197068,45.8015571 L20.221456,45.8015571 C18.7686987,45.8015571 17.5859252,44.6210687 17.5859252,43.171 L17.5859252,30.8959535 C17.5859252,29.4438512 18.7686451,28.2653953 20.221456,28.2653953 L32.5197068,28.2653953 C33.9724641,28.2653953 35.1552376,29.4437977 35.1552376,30.8959535 L35.1552376,43.171 C35.1552376,44.6210152 33.9725177,45.8015571 32.5197068,45.8015571 Z" id="Fill-1"></path>
            <path d="M26.3719211,5.46597674 C22.4950435,5.46597674 19.3425885,8.6125907 19.3425885,12.479907 C19.3425885,16.3494698 22.4951507,19.4959767 26.3719211,19.4959767 C30.2467088,19.4959767 33.3991102,16.3493628 33.3991102,12.479907 C33.3991102,8.61243023 30.246548,5.46597674 26.3719211,5.46597674 M26.3719211,21.2493256 C21.5279141,21.2493256 17.5859252,17.3149884 17.5859252,12.479907 C17.5859252,7.64503953 21.5276997,3.71262791 26.3719211,3.71262791 C31.2159282,3.71262791 35.1557735,7.64487907 35.1557735,12.479907 C35.1557735,17.3147744 31.216089,21.2493256 26.3719211,21.2493256" id="Fill-2"></path>
            <path d="M2.65016077,31.7710233 C2.16660142,31.7710233 1.77306168,32.1638258 1.77306168,32.6485535 L1.77306168,41.4179721 C1.77306168,41.9006191 2.16661213,42.2934163 2.65016077,42.2934163 L17.5860859,42.2934163 L17.5860859,31.7711837 L2.65016077,31.7710233 Z M18.4654894,44.0482093 L2.65016077,44.0482093 C1.19740344,44.0482093 0.0146298649,42.8677209 0.0146298649,41.4176512 L0.0146298649,32.6482326 C0.0146298649,31.1982163 1.19734985,30.0176744 2.65016077,30.0176744 L18.4654894,30.0176744 C18.9490487,30.0176744 19.3425885,30.4083909 19.3425885,30.8952047 L19.3425885,43.1702512 C19.3425885,43.6549895 18.949038,44.0477814 18.4654894,44.0477814 L18.4654894,44.0482093 Z" id="Fill-3"></path>
            <path d="M35.1557735,42.2932558 L50.0916987,42.2932558 C50.575258,42.2932558 50.9687978,41.9004533 50.9687978,41.4178116 L50.9687978,32.648393 C50.9687978,32.1636547 50.5752473,31.7708628 50.0916987,31.7708628 L35.1557735,31.7708628 L35.1557735,42.2932558 Z M50.0916987,44.0483163 L34.2785137,44.0483163 C33.7928589,44.0483163 33.3993246,43.6555137 33.3993246,43.170786 L33.3993246,30.8957395 C33.3993246,30.4089098 33.792875,30.0182093 34.2785137,30.0182093 L50.0916987,30.0182093 C51.544456,30.0182093 52.7272295,31.1986977 52.7272295,32.6487674 L52.7272295,41.418186 C52.7272295,42.8682023 51.5445096,44.0487442 50.0916987,44.0487442 L50.0916987,44.0483163 Z" id="Fill-4"></path>
            <path d="M22.2835794,18.1796279 C23.4704793,19.0342116 24.8918868,19.4959233 26.3718675,19.4959233 C27.8497583,19.4959233 29.2711658,19.0341688 30.4601557,18.1796279 C29.2711122,17.3271302 27.8497583,16.8654186 26.3718675,16.8654186 C24.8918868,16.8654186 23.4704793,17.327173 22.2835794,18.1796279 M26.3718675,21.2489512 C24.1047644,21.2489512 21.9507351,20.3839372 20.3055379,18.8148023 C20.1317901,18.6476512 20.0334052,18.4199084 20.0334052,18.1796279 C20.0334052,17.9414388 20.1317901,17.7116047 20.3055379,17.5465395 C21.9508959,15.9753186 24.1049252,15.1103047 26.3718675,15.1103047 C28.6368807,15.1103047 30.793,15.9753186 32.4381972,17.5465395 C32.6098496,17.7115993 32.7082399,17.9414335 32.7082399,18.1796279 C32.7082399,18.4199084 32.609855,18.6476512 32.4381972,18.8148023 C30.7928392,20.3839372 28.6366663,21.2489512 26.3718675,21.2489512" id="Fill-5"></path>
            <path d="M26.3719211,13.3576512 C26.1458378,13.3576512 25.9218552,13.2719842 25.7501759,13.1006556 C25.406871,12.757993 25.406871,12.2042974 25.7501759,11.8616509 L28.3857068,9.23109279 C28.7290117,8.88843558 29.2837594,8.88843558 29.6270536,9.23109279 C29.9703585,9.57375535 29.9703585,10.1274509 29.6270536,10.4700974 L26.9915228,13.1006556 C26.8219603,13.2719842 26.5958823,13.3576512 26.3719211,13.3576512" id="Fill-6"></path>
            <path d="M26.3719211,7.21023256 C25.8862664,7.21023256 25.4927321,6.81951605 25.4927321,6.33478837 L25.4927321,4.6340186 C25.4927321,4.15137163 25.8862825,3.75857442 26.3719211,3.75857442 C26.8554805,3.75857442 27.2490202,4.15138233 27.2490202,4.6340186 L27.2490202,6.33478837 C27.2490202,6.81952674 26.8554698,7.21023256 26.3719211,7.21023256" id="Fill-7"></path>
            <path d="M20.221456,13.3576512 L18.4651678,13.3576512 C17.9795131,13.3576512 17.5859788,12.9648433 17.5859788,12.4801209 C17.5859788,11.9953986 17.9795292,11.6046767 18.4651678,11.6046767 L20.221456,11.6046767 C20.7071107,11.6046767 21.1006451,11.9953933 21.1006451,12.4801209 C21.1006451,12.9648486 20.7070946,13.3576512 20.221456,13.3576512" id="Fill-8"></path>
            <path d="M34.2785137,13.3576512 L32.5201355,13.3576512 C32.0365761,13.3576512 31.6430364,12.9648433 31.6430364,12.4801209 C31.6430364,11.9953986 32.0365869,11.6046767 32.5201355,11.6046767 L34.2785137,11.6046767 C34.762073,11.6046767 35.1556127,11.9953933 35.1556127,12.4801209 C35.1556127,12.9648486 34.7620676,13.3576512 34.2785137,13.3576512" id="Fill-9"></path>
            <path d="M4.40859252,35.2793256 L0.893872599,35.2793256 C0.408217736,35.2793256 0.0146834008,34.8865177 0.0146834008,34.4017953 C0.0146834008,33.917073 0.408233867,33.5263512 0.893872599,33.5263512 L4.40859252,33.5263512 C4.89215187,33.5263512 5.2877816,33.9170677 5.2877816,34.4017953 C5.2877816,34.886523 4.89214115,35.2793256 4.40859252,35.2793256" id="Fill-10"></path>
            <path d="M18.4653286,35.2793256 L11.435996,35.2793256 C10.9524366,35.2793256 10.5588969,34.8865177 10.5588969,34.4017953 C10.5588969,33.917073 10.9524473,33.5263512 11.435996,33.5263512 L18.4653286,33.5263512 C18.948888,33.5263512 19.3424277,33.9170677 19.3424277,34.4017953 C19.3424277,34.886523 18.9488772,35.2793256 18.4653286,35.2793256" id="Fill-11"></path>
            <path d="M8.80046512,34.4015814 C8.80046512,33.9189344 8.40691466,33.5261372 7.92336603,33.5261372 C7.43771132,33.5261372 7.04417695,33.9189398 7.04417695,34.4015814 C7.04417695,34.8863198 7.4377274,35.2791116 7.92336603,35.2791116 C8.40692538,35.2791116 8.80046512,34.8863037 8.80046512,34.4015814" id="Fill-12"></path>
            <path d="M43.0618301,35.2793256 L34.2779778,35.2793256 C33.7923231,35.2793256 33.3987887,34.8865177 33.3987887,34.4017953 C33.3987887,33.917073 33.7923391,33.5263512 34.2779778,33.5263512 L43.0618301,33.5263512 C43.5474848,33.5263512 43.9410192,33.9170677 43.9410192,34.4017953 C43.9410192,34.886523 43.5474688,35.2793256 43.0618301,35.2793256" id="Fill-13"></path>
            <path d="M47.4561678,34.4015814 C47.4561678,33.9189344 47.0626174,33.5261372 46.5769788,33.5261372 C46.0913401,33.5261372 45.6977897,33.9189398 45.6977897,34.4015814 C45.6977897,34.8863198 46.0913348,35.2791116 46.5769788,35.2791116 C47.0626228,35.2791116 47.4561678,34.8863037 47.4561678,34.4015814" id="Fill-14"></path>
            <path d="M26.3719211,1.95767442 C20.5585339,1.95767442 15.8297978,6.67759535 15.8297978,12.479907 C15.8297978,18.2823256 20.5586411,23.0021395 26.3719211,23.0021395 C32.1853084,23.0021395 36.9140445,18.2822186 36.9140445,12.479907 C36.9140445,6.67748837 32.1852012,1.95767442 26.3719211,1.95767442 M26.3719211,24.757093 C19.589636,24.757093 14.0715268,19.2493953 14.0715268,12.479907 C14.0715268,5.71255814 19.589636,0.204860465 26.3719211,0.204860465 C33.1542063,0.204860465 38.6701719,5.71255814 38.6701719,12.479907 C38.6701719,19.2493953 33.1542063,24.757093 26.3719211,24.757093" id="Fill-15"></path>
            <path d="M51.8478261,35.2793256 L50.0915379,35.2793256 C49.6058832,35.2793256 49.2123488,34.8865177 49.2123488,34.4017953 C49.2123488,33.917073 49.6058993,33.5263512 50.0915379,33.5263512 L51.8478261,33.5263512 C52.3334808,33.5263512 52.7270152,33.9170677 52.7270152,34.4017953 C52.7270152,34.886523 52.3334647,35.2793256 51.8478261,35.2793256" id="Fill-16"></path>
            <path d="M24.6136502,28.2653953 L28.1283701,28.2653953 L28.1283701,24.623586 C26.9414702,24.8011835 25.8005501,24.8011835 24.6136502,24.623586 L24.6136502,28.2653953 Z M29.0075592,30.0183698 L23.7365511,30.0183698 C23.2508964,30.0183698 22.857362,29.6255619 22.857362,29.1408395 L22.857362,23.5641419 C22.857362,23.2946086 22.9808697,23.0417958 23.1902009,22.8746233 C23.3995322,22.7095635 23.6758556,22.6489665 23.9375063,22.7095635 C25.5912242,23.10028 27.1507853,23.10028 28.8065932,22.7095635 C29.06617,22.6489719 29.3424881,22.7074774 29.5518086,22.8746233 C29.7632352,23.0417744 29.8846475,23.2945926 29.8846475,23.5641419 L29.8846475,29.1408395 C29.8846475,29.6255779 29.4910971,30.0183698 29.0075484,30.0183698 L29.0075592,30.0183698 Z" id="Fill-17"></path>
        </g>
    </g>
</svg>