<?xml version="1.0" encoding="iso-8859-1"?>
<!-- Generator: Adobe Illustrator 19.0.0, SVG Export Plug-In . SVG Version: 6.00 Build 0)  -->
<svg version="1.1" id="Capa_1" xmlns="http://www.w3.org/2000/svg" xmlns:xlink="http://www.w3.org/1999/xlink" x="0px" y="0px"
	 viewBox="0 0 512 512" style="enable-background:new 0 0 512 512;" xml:space="preserve">
<g>
	<polygon style="fill:#BDC3C7;" points="317.793,485.517 194.207,485.517 220.69,388.414 291.31,388.414 	"/>
	<path style="fill:#3F5C6C;" d="M391.786,512H120.214c-3.059,0-5.901-1.584-7.509-4.187c-1.608-2.603-1.755-5.852-0.386-8.589
		l8.828-17.655c1.495-2.991,4.552-4.88,7.896-4.88h253.917c3.344,0,6.4,1.889,7.896,4.88l8.828,17.655
		c1.368,2.736,1.222,5.986-0.386,8.589C397.687,510.416,394.845,512,391.786,512z"/>
	<g>
		<path style="fill:#F29C1F;" d="M389.203,41.194c-4.875,0-8.828-3.952-8.828-8.828V8.828c0-4.875,3.952-8.828,8.828-8.828
			s8.828,3.952,8.828,8.828v23.539C398.03,37.242,394.078,41.194,389.203,41.194z"/>
		<path style="fill:#F29C1F;" d="M353.901,50.655c-3.157,0.003-6.076-1.679-7.655-4.414l-11.772-20.384
			c-2.435-4.223-0.987-9.62,3.235-12.056c4.222-2.437,9.619-0.991,12.058,3.229l11.767,20.384c1.578,2.729,1.581,6.093,0.006,8.825
			C359.966,48.97,357.054,50.653,353.901,50.655L353.901,50.655z"/>
		<path style="fill:#F29C1F;" d="M328.035,76.504c-1.547,0-3.066-0.407-4.405-1.181l-20.388-11.767
			c-2.734-1.576-4.418-4.491-4.419-7.646s1.682-6.071,4.415-7.649s6.1-1.577,8.832,0.002l20.388,11.767
			c3.463,1.998,5.151,6.074,4.115,9.935C335.535,73.827,332.033,76.51,328.035,76.504z"/>
		<path style="fill:#F29C1F;" d="M470.741,158.897c-1.547,0-3.066-0.407-4.405-1.181l-20.388-11.772
			c-2.734-1.576-4.418-4.491-4.419-7.646c-0.001-3.155,1.682-6.071,4.415-7.649c2.733-1.577,6.1-1.577,8.832,0.002l20.388,11.772
			c3.463,1.998,5.151,6.074,4.115,9.935C478.242,156.219,474.74,158.902,470.741,158.897z"/>
		<path style="fill:#F29C1F;" d="M483.362,111.815h-23.539c-4.875,0-8.828-3.952-8.828-8.828c0-4.875,3.952-8.828,8.828-8.828
			h23.539c4.875,0,8.828,3.952,8.828,8.828C492.19,107.862,488.237,111.815,483.362,111.815z"/>
		<path style="fill:#F29C1F;" d="M450.371,76.504c-3.998,0.005-7.501-2.677-8.537-6.539c-1.037-3.861,0.651-7.938,4.115-9.935
			l20.388-11.767c2.732-1.579,6.099-1.58,8.832-0.002s4.416,4.493,4.415,7.649c-0.001,3.155-1.686,6.07-4.419,7.646l-20.388,11.767
			C453.437,76.097,451.917,76.504,450.371,76.504z"/>
		<path style="fill:#F29C1F;" d="M424.504,50.655c-3.153-0.002-6.065-1.685-7.64-4.417s-1.572-6.095,0.006-8.825l11.767-20.384
			c2.439-4.22,7.837-5.666,12.058-3.229c4.222,2.437,5.67,7.834,3.235,12.056l-11.772,20.384
			C430.581,48.976,427.662,50.659,424.504,50.655z"/>
	</g>
	<circle style="fill:#F0C419;" cx="388.414" cy="105.931" r="79.448"/>
	<polygon style="fill:#2FA8CC;" points="495.316,291.31 489.843,273.655 475.895,229.517 470.422,211.862 456.474,167.724 
		451.001,150.069 434.317,97.103 79.448,97.103 61.263,150.069 58.262,158.897 55.526,167.724 41.578,211.862 36.105,229.517 
		22.157,273.655 16.684,291.31 0,344.276 0,397.241 512,397.241 512,344.276 	"/>
	<rect y="344.276" style="fill:#3F5C6C;" width="512" height="52.966"/>
	<g>
		<polygon style="fill:#E6E7E8;" points="456.474,167.724 55.526,167.724 58.262,158.897 61.263,150.069 451.001,150.069 		"/>
		<polygon style="fill:#E6E7E8;" points="475.895,229.517 36.105,229.517 41.578,211.862 470.422,211.862 		"/>
		<polygon style="fill:#E6E7E8;" points="495.316,291.31 16.684,291.31 22.157,273.655 489.843,273.655 		"/>
		<polygon style="fill:#E6E7E8;" points="176.463,97.103 166.047,150.069 164.017,160.574 162.781,167.724 155.277,211.862 
			152.188,229.517 144.684,273.655 141.683,291.31 132.59,344.276 114.67,344.276 123.763,291.31 126.764,273.655 134.268,229.517 
			137.357,211.862 144.861,167.724 146.626,157.396 148.039,150.069 158.455,97.103 		"/>
		<polygon style="fill:#E6E7E8;" points="397.771,344.276 380.116,344.276 370.847,291.31 367.757,273.655 359.989,229.517 
			356.899,211.862 349.219,167.724 347.895,160.397 346.13,150.069 336.861,97.103 354.781,97.103 363.961,150.069 366.963,167.724 
			374.643,211.862 377.644,229.517 385.324,273.655 386.56,280.982 388.414,291.31 		"/>
		<rect x="247.172" y="97.103" style="fill:#E6E7E8;" width="17.655" height="247.172"/>
	</g>
</g>
<g>
</g>
<g>
</g>
<g>
</g>
<g>
</g>
<g>
</g>
<g>
</g>
<g>
</g>
<g>
</g>
<g>
</g>
<g>
</g>
<g>
</g>
<g>
</g>
<g>
</g>
<g>
</g>
<g>
</g>
</svg>
