<?xml version="1.0" encoding="UTF-8"?>
<svg width="46px" height="46px" viewBox="0 0 46 46" version="1.1" xmlns="http://www.w3.org/2000/svg" xmlns:xlink="http://www.w3.org/1999/xlink">
    <!-- Generator: Sketch 49.1 (51147) - http://www.bohemiancoding.com/sketch -->
    <title>Solar-Icon</title>
    <desc>Created with Sketch.</desc>
    <defs></defs>
    <g id="Symbols" stroke="none" stroke-width="1" fill="none" fill-rule="evenodd">
        <g id="Solar-Icon" fill="#FFFFFF" fill-rule="nonzero">
            <g id="Shape">
                <path d="M45.8538437,44.0479689 L37.0965837,26.7388173 C36.8673022,26.2857681 36.4021806,26 35.8937542,26 L10.1060528,26 C9.59762641,26 9.13250478,26.2857681 8.90322327,26.7388173 L0.14605308,44.0479689 C-0.305681813,44.9409718 0.345057214,46 1.34879274,46 L44.6510142,46 C45.6532224,46 46.3062974,44.9424966 45.8538437,44.0479689 Z M24.3475613,28.6908484 L35.064765,28.6908484 L38.0819911,34.6545758 L24.3475613,34.6545758 L24.3475613,28.6908484 Z M21.6523355,43.3091516 L3.53927572,43.3091516 L6.55650183,37.3454242 L21.6523355,37.3454242 L21.6523355,43.3091516 Z M21.6523355,34.6545758 L7.91790573,34.6545758 L10.9351318,28.6908484 L21.6523355,28.6908484 L21.6523355,34.6545758 Z M24.3474714,43.3091516 L24.3474714,37.3454242 L39.4433051,37.3454242 L42.4606211,43.3091516 L24.3474714,43.3091516 Z"></path>
                <path d="M23,7 C20.2429405,7 18,9.243 18,12 C18,14.757 20.2430314,17 23,17 C25.7569686,17 28,14.757 28,12 C28,9.243 25.7570595,7 23,7 Z M23,14.2727273 C21.7468407,14.2727273 20.7272397,13.2531818 20.7272397,12 C20.7272397,10.7468182 21.7468407,9.72727273 23,9.72727273 C24.2531593,9.72727273 25.2727603,10.7468182 25.2727603,12 C25.2727603,13.2531818 24.2532502,14.2727273 23,14.2727273 Z"></path>
                <path d="M23.5,0 C22.6715448,0 22,0.639547987 22,1.42841272 L22,4.57158728 C22,5.36045201 22.6716448,6 23.5,6 C24.3284552,6 25,5.36045201 25,4.57158728 L25,1.42841272 C25,0.639547987 24.3284552,0 23.5,0 Z"></path>
                <path d="M23.5,18 C22.6715448,18 22,18.6394528 22,19.4284127 L22,22.5715873 C22,23.360452 22.6715448,24 23.5,24 C24.3284552,24 25,23.360452 25,22.5715873 L25,19.4284127 C25,18.639548 24.3284552,18 23.5,18 Z"></path>
                <path d="M18.58813,5.59962879 L16.4003956,3.41181461 C15.8513293,2.86268159 14.9609363,2.86277533 14.41187,3.41181461 C13.86271,3.96094763 13.86271,4.85120305 14.41187,5.40033606 L16.5996044,7.58815024 C17.1485769,8.13728325 18.0388762,8.13728325 18.58813,7.58815024 C19.13729,7.03901722 19.13729,6.1487618 18.58813,5.59962879 Z"></path>
                <path d="M31.58813,18.5996288 L29.4003019,16.4118146 C28.8513293,15.8626816 27.9609363,15.8627753 27.41187,16.4118146 C26.86271,16.9609476 26.86271,17.851203 27.41187,18.4003361 L29.5996044,20.5881502 C30.1486707,21.1372833 31.0388762,21.1372833 31.58813,20.5881502 C32.13729,20.0390172 32.13729,19.1487618 31.58813,18.5996288 Z"></path>
                <path d="M15.5715918,10 L12.4284082,10 C11.6394934,10 11,10.6716 11,11.5 C11,12.3284 11.6395886,13 12.4284082,13 L15.5715918,13 C16.3605066,13 17,12.3284 17,11.5 C17,10.6716 16.3605066,10 15.5715918,10 Z"></path>
                <path d="M33.5715918,10 L30.4284082,10 C29.6395886,10 29,10.6716 29,11.5 C29,12.3284 29.6394934,13 30.4284082,13 L33.5715918,13 C34.3605066,13 35,12.3284 35,11.5 C35,10.6716 34.3605066,10 33.5715918,10 Z"></path>
                <path d="M18.58813,16.4118498 C18.0390637,15.8627167 17.1487644,15.8627167 16.5996981,16.4118498 L14.41187,18.5996639 C13.86271,19.148797 13.86271,20.0390524 14.41187,20.5881854 C14.9609363,21.1372247 15.8512356,21.1373184 16.4003956,20.5881854 L18.58813,18.4003712 C19.13729,17.8512382 19.13729,16.9609828 18.58813,16.4118498 Z"></path>
                <path d="M31.5881377,3.4118175 C31.0390817,2.86277437 30.1487054,2.86268063 29.5996494,3.4118175 L27.4118623,5.59964706 C26.8627126,6.14878394 26.8627126,7.03904562 27.4118623,7.5881825 C27.9609183,8.13722563 28.8512946,8.13731937 29.4003506,7.5881825 L31.5881377,5.40035294 C32.1372874,4.85121606 32.1372874,3.96095438 31.5881377,3.4118175 Z"></path>
            </g>
        </g>
    </g>
</svg>