<?xml version="1.0" encoding="UTF-8"?>
<svg width="48px" height="48px" viewBox="0 0 48 48" version="1.1" xmlns="http://www.w3.org/2000/svg" xmlns:xlink="http://www.w3.org/1999/xlink">
    <!-- Generator: Sketch 48.2 (47327) - http://www.bohemiancoding.com/sketch -->
    <title>compare-plans</title>
    <desc>Created with Sketch.</desc>
    <defs></defs>
    <g id="Symbols" stroke="none" stroke-width="1" fill="none" fill-rule="evenodd">
        <g id="compare-plans" fill-rule="nonzero">
            <g transform="translate(1.500000, 1.878981)" id="Shape">
                <path d="M39.507874,10.3872047 L19.6883858,10.3872047 L19.6883858,44.8883858 L44.9751969,44.8883858 L44.9751969,15.9129921 L39.507874,10.3872047 Z M39.9720472,13.1244094 L42.2645669,15.4435039 L39.9755906,15.4435039 L39.9720472,13.1244094 Z M21.282874,43.2938976 L21.282874,11.9816929 L38.3811024,11.9816929 L38.3811024,17.0379921 L43.3807087,17.0379921 L43.3807087,43.2938976 L21.282874,43.2938976 Z" fill="#F48022"></path>
                <path d="M39.4582677,20.388189 L24.4895669,20.388189 C24.1471069,20.388189 23.8694882,20.1105703 23.8694882,19.7681102 C23.8694882,19.4256502 24.1471069,19.1480315 24.4895669,19.1480315 L39.4582677,19.1480315 C39.8007277,19.1480315 40.0783465,19.4256502 40.0783465,19.7681102 C40.0783465,20.1105703 39.8007277,20.388189 39.4582677,20.388189 Z" fill="#F48022"></path>
                <path d="M39.4582677,25.2584646 L24.4895669,25.2584646 C24.1471069,25.2584646 23.8694882,24.9808459 23.8694882,24.6383858 C23.8694882,24.2959258 24.1471069,24.0183071 24.4895669,24.0183071 L39.4582677,24.0183071 C39.8007277,24.0183071 40.0783465,24.2959258 40.0783465,24.6383858 C40.0783465,24.9808459 39.8007277,25.2584646 39.4582677,25.2584646 Z" fill="#F48022"></path>
                <path d="M39.4582677,30.1269685 L24.4895669,30.1269685 C24.1471069,30.1269685 23.8694882,29.8493498 23.8694882,29.5068898 C23.8694882,29.1644297 24.1471069,28.886811 24.4895669,28.886811 L39.4582677,28.886811 C39.8007277,28.886811 40.0783465,29.1644297 40.0783465,29.5068898 C40.0783465,29.8493498 39.8007277,30.1269685 39.4582677,30.1269685 Z" fill="#F48022"></path>
                <path d="M39.4582677,34.9972441 L24.4895669,34.9972441 C24.1471069,34.9972441 23.8694882,34.7196254 23.8694882,34.3771654 C23.8694882,34.0347053 24.1471069,33.7570866 24.4895669,33.7570866 L39.4582677,33.7570866 C39.8007277,33.7570866 40.0783465,34.0347053 40.0783465,34.3771654 C40.0783465,34.7196254 39.8007277,34.9972441 39.4582677,34.9972441 Z" fill="#F48022"></path>
                <path d="M18.3437008,9.83444882 L4.39547244,9.83444882 C4.05301241,9.83444882 3.7753937,9.55683011 3.7753937,9.21437008 C3.7753937,8.87191005 4.05301241,8.59429134 4.39547244,8.59429134 L18.3437008,8.59429134 C18.6861608,8.59429134 18.9637795,8.87191005 18.9637795,9.21437008 C18.9637795,9.55683011 18.6861608,9.83444882 18.3437008,9.83444882 Z" fill="#F48022"></path>
                <path d="M18.3437008,14.7047244 L4.39547244,14.7047244 C4.05301241,14.7047244 3.7753937,14.4271057 3.7753937,14.0846457 C3.7753937,13.7421856 4.05301241,13.4645669 4.39547244,13.4645669 L18.3437008,13.4645669 C18.6861608,13.4645669 18.9637795,13.7421856 18.9637795,14.0846457 C18.9637795,14.4271057 18.6861608,14.7047244 18.3437008,14.7047244 Z" fill="#F48022"></path>
                <path d="M18.3437008,19.5732283 L4.39547244,19.5732283 C4.05301241,19.5732283 3.7753937,19.2956096 3.7753937,18.9531496 C3.7753937,18.6106896 4.05301241,18.3330709 4.39547244,18.3330709 L18.3437008,18.3330709 C18.6861608,18.3330709 18.9637795,18.6106896 18.9637795,18.9531496 C18.9637795,19.2956096 18.6861608,19.5732283 18.3437008,19.5732283 Z" fill="#F48022"></path>
                <path d="M18.3437008,24.4488189 L4.39547244,24.4488189 C4.05301241,24.4488189 3.7753937,24.1712002 3.7753937,23.8287402 C3.7753937,23.4862801 4.05301241,23.2086614 4.39547244,23.2086614 L18.3437008,23.2086614 C18.6861608,23.2086614 18.9637795,23.4862801 18.9637795,23.8287402 C18.9637795,24.1712002 18.6861608,24.4488189 18.3437008,24.4488189 Z" fill="#F48022"></path>
                <path d="M31.3122047,6.90944882 C31.1024154,6.91004161 30.9010019,6.82718165 30.7523622,6.67913386 L28.0629921,4.02165354 C27.9097689,3.87287365 27.8234626,3.66829567 27.8238189,3.45472441 C27.8239319,3.2493979 27.9032592,3.05203152 28.0452756,2.90374016 C28.0508561,2.89995741 28.0556661,2.89514749 28.0594488,2.88956693 L30.7505906,0.232086614 C31.0665139,-0.0589330129 31.5562022,-0.0473503022 31.8580128,0.258280731 C32.1598235,0.563911764 32.1652459,1.05370699 31.8702756,1.36594488 L30.5627953,2.65748031 L41.0616142,2.65748031 C41.5019199,2.65748031 41.8588583,3.01441865 41.8588583,3.45472441 C41.8588583,3.89503016 41.5019199,4.2519685 41.0616142,4.2519685 L30.5627953,4.2519685 L31.8720472,5.54350394 C32.1018465,5.77070754 32.1717618,6.11415761 32.0490722,6.41311651 C31.9263825,6.71207542 31.6353596,6.9074002 31.3122047,6.90767717 L31.3122047,6.90944882 Z" fill="#F48120"></path>
                <path d="M12.7559055,43.7793307 C12.4319636,43.7797837 12.1399541,43.5841776 12.0171022,43.2844345 C11.8942502,42.9846913 11.9649839,42.6404123 12.196063,42.4133858 L13.5035433,41.1218504 L3.01181102,41.1218504 C2.57150527,41.1218504 2.21456693,40.7649121 2.21456693,40.3246063 C2.21456693,39.8843005 2.57150527,39.5273622 3.01181102,39.5273622 L13.5070866,39.5273622 L12.1996063,38.2358268 C11.8860108,37.9266343 11.8824414,37.4217648 12.1916339,37.1081693 C12.5008264,36.7945738 13.0056958,36.7910044 13.3192913,37.1001969 L16.0104331,39.7576772 L16.0246063,39.773622 C16.165866,39.9215474 16.2445653,40.1182959 16.2442913,40.3228346 C16.2445653,40.5273734 16.165866,40.7241219 16.0246063,40.8720472 L16.0104331,40.8862205 L13.3192913,43.5437008 C13.1699923,43.6935776 12.9674526,43.7782875 12.7559055,43.7793307 Z" fill="#F48120"></path>
                <path d="M19.6883858,33.4435039 L1.59448819,33.4435039 L1.59448819,2.12598425 L18.6927165,2.12598425 L18.6927165,7.18759843 L23.6923228,7.18759843 L23.6923228,10.3872047 L25.286811,10.3872047 L25.286811,6.06259843 L19.8230315,0.531496063 L0,0.531496063 L0,35.0379921 L19.6883858,35.0379921 L19.6883858,33.4435039 Z M20.2872047,3.27401575 L22.5797244,5.59311024 L20.2872047,5.59311024 L20.2872047,3.27401575 Z" fill="#F48022"></path>
            </g>
        </g>
    </g>
</svg>