<?xml version="1.0" encoding="UTF-8"?>
<svg width="48px" height="48px" viewBox="0 0 48 48" version="1.1" xmlns="http://www.w3.org/2000/svg" xmlns:xlink="http://www.w3.org/1999/xlink">
    <!-- Generator: Sketch 48.2 (47327) - http://www.bohemiancoding.com/sketch -->
    <title>energy hub icon</title>
    <desc>Created with Sketch.</desc>
    <defs></defs>
    <g id="Symbols" stroke="none" stroke-width="1" fill="none" fill-rule="evenodd">
        <g id="energy-hub-icon" fill="#F58025" fill-rule="nonzero">
            <g transform="translate(1.500000, 1.878981)">
                <g id="marketplace-logo" transform="translate(0.002666, 0.089498)">
                    <path d="M21.3811694,43.1002061 C21.1305935,43.2068846 20.8409816,43.0902327 20.734303,42.8396568 C20.6276245,42.589081 20.7442764,42.299469 20.9948522,42.1927905 L42.3272443,33.1108781 C42.5778202,33.0041996 42.8674321,33.1208514 42.9741106,33.3714273 C43.0807892,33.6220032 42.9641373,33.9116151 42.7135614,34.0182937 L21.3811694,43.1002061 Z" id="Line-2"></path>
                    <path d="M41.1111588,30.1397497 C40.9277133,29.9384631 40.9421763,29.626576 41.143463,29.4431305 C41.3447496,29.2596849 41.6566367,29.274148 41.8400822,29.4754346 L43.0653472,30.8198632 C43.2818881,31.0574639 43.2168315,31.4354016 42.9333088,31.5869235 L21.4210782,43.083617 C21.1808881,43.2119808 20.8821161,43.1213277 20.7537522,42.8811375 C20.6253884,42.6409474 20.7160415,42.3421754 20.9562317,42.2138115 L41.9095662,31.0158065 L41.1111588,30.1397497 Z" id="Line-3"></path>
                    <path d="M21.9432764,0.389972065 C22.6187345,-0.101280977 23.5619871,0.0310842953 24.0761455,0.689274508 L43.3483032,25.3601641 C43.8853662,26.1079625 43.725123,27.07606 43.0291836,27.5743293 L21.0035367,43.3439573 L0.0930175786,16.2814177 L21.9432764,0.389972065 Z M42.209005,26.428775 C42.2722722,26.3834778 42.2868398,26.295469 42.2415425,26.2322018 C42.2407808,26.2311378 35.8155527,18.0059365 22.9658581,1.55659766 C22.9191165,1.49676219 22.8333662,1.48472898 22.7719609,1.52938835 L2.09470696,16.5677209 L21.2878517,41.4076225 L42.209005,26.428775 Z" id="Path-7"></path>
                    <g id="shopping-cart-copy" transform="translate(22.829396, 21.590510) rotate(-2.000000) translate(-22.829396, -21.590510) translate(11.980898, 10.601122)">
                        <path d="M7.58720362,13.4813846 L16.4616318,13.4813846 C17.4679078,13.4813846 18.2888173,12.6604752 18.2888173,11.6541991 L18.2888173,7.92038526 C18.2888173,7.91707514 18.2888173,7.9104549 18.2888173,7.90714479 C18.2888173,7.89721443 18.2888173,7.89059419 18.2888173,7.88066384 C18.2888173,7.8740436 18.2888173,7.86742336 18.2855071,7.86080312 C18.2855071,7.85418289 18.282197,7.84425253 18.282197,7.83763229 C18.282197,7.83101206 18.2788869,7.82439182 18.2788869,7.81777158 C18.2755768,7.81115134 18.2755768,7.80453111 18.2722667,7.79460075 C18.2689566,7.78798051 18.2689566,7.78136028 18.2656464,7.77474004 C18.2623363,7.7681198 18.2623363,7.76149956 18.2590262,7.75487933 C18.2557161,7.74825909 18.252406,7.74163885 18.2490958,7.7317085 C18.2457857,7.72508826 18.2424756,7.71846802 18.2391655,7.7151579 C18.2358554,7.70853767 18.2325452,7.70191743 18.2292351,7.69529719 C18.225925,7.68867695 18.2226149,7.68536683 18.2193048,7.6787466 C18.2159947,7.67212636 18.2093744,7.66550612 18.2060643,7.65888589 C18.2027542,7.65226565 18.1994441,7.64895553 18.1928238,7.64233529 C18.1895137,7.63571505 18.1828935,7.63240494 18.1795833,7.6257847 C18.1762732,7.61916446 18.169653,7.61585434 18.1663429,7.60923411 C18.1630328,7.60261387 18.1564125,7.59930375 18.1531024,7.59599363 C18.1464822,7.58937339 18.143172,7.58606327 18.1365518,7.57944304 C18.1299316,7.57613292 18.1266214,7.56951268 18.1200012,7.56620256 C18.113381,7.56289244 18.1067607,7.55627221 18.1001405,7.55296209 C18.0935203,7.54965197 18.0902101,7.54634185 18.0835899,7.54303173 C18.0769697,7.53972161 18.0703494,7.53641149 18.0637292,7.52979126 C18.057109,7.52648114 18.0504887,7.52317102 18.0438685,7.5198609 C18.0372482,7.51655078 18.030628,7.51324066 18.0240078,7.50993055 C18.0173875,7.50662043 18.0107673,7.50331031 18.0041471,7.50000019 C17.9975268,7.49669007 17.9909066,7.49669007 17.9842863,7.49337995 C17.9776661,7.49006983 17.9677358,7.48675971 17.9611155,7.48675971 C17.9544953,7.48675971 17.947875,7.4834496 17.9445649,7.4834496 C17.9346346,7.48013948 17.9280143,7.48013948 17.918084,7.48013948 C17.9147739,7.48013948 17.9114637,7.47682936 17.9048435,7.47682936 L6.65706028,5.9243837 L6.65706028,4.35538746 C6.65706028,4.33883686 6.65706028,4.32228627 6.65375016,4.3090458 C6.65375016,4.30573568 6.65375016,4.30242556 6.65044004,4.29580532 C6.65044004,4.28587497 6.64712992,4.27594461 6.64712992,4.26601425 C6.6438198,4.2560839 6.6438198,4.24946366 6.64050968,4.2395333 C6.64050968,4.23291307 6.63719956,4.22960295 6.63719956,4.22298271 C6.63388944,4.21305235 6.63057933,4.203122 6.62726921,4.19319164 C6.62726921,4.18988152 6.62395909,4.18326129 6.62395909,4.17995117 C6.62064897,4.17002081 6.61733885,4.16340058 6.61071861,4.15347022 C6.6074085,4.1501601 6.6074085,4.14353986 6.60409838,4.14022974 C6.60078826,4.13360951 6.59747814,4.12698927 6.5908579,4.12036903 C6.58754778,4.1137488 6.58423766,4.11043868 6.58092755,4.10381844 C6.57761743,4.0971982 6.57430731,4.09388808 6.57099719,4.08726785 C6.56768707,4.08064761 6.56106683,4.07402737 6.55775672,4.06740713 C6.5544466,4.06409702 6.55113648,4.0607869 6.54782636,4.05747678 C6.54120612,4.05085654 6.53458588,4.0442363 6.52796565,4.03761607 C6.52465553,4.03430595 6.52134541,4.03099583 6.51803529,4.02768571 C6.51141505,4.02106547 6.50479482,4.01444524 6.49486446,4.007825 C6.49155434,4.00451488 6.4849341,4.00120476 6.48162399,3.99789464 C6.47500375,3.9912744 6.46838351,3.98796429 6.46176327,3.98134405 C6.45183292,3.97472381 6.44190256,3.96810357 6.43528232,3.96479346 C6.43197221,3.96148334 6.42866209,3.96148334 6.42535197,3.95817322 C6.41211149,3.95155298 6.3955609,3.94493274 6.38232043,3.93831251 L3.94276297,2.91217572 C3.71436478,2.81618228 3.45286541,2.92210608 3.35687197,3.15050426 C3.26087853,3.37890245 3.36680232,3.64040183 3.59520051,3.73639527 L5.76001812,4.64998802 L5.76001812,6.67578064 L5.76001812,6.99686215 L5.76001812,9.45959044 L5.76001812,11.6608194 L5.76001812,14.441319 C5.76001812,15.3681523 6.45514304,16.1360998 7.3521852,16.2519539 C7.18998938,16.5233837 7.09399594,16.8411551 7.09399594,17.1787872 C7.09399594,18.1751329 7.90497501,18.9828018 8.89801061,18.9828018 C9.89104621,18.9828018 10.7020253,18.1718228 10.7020253,17.1787872 C10.7020253,16.8477753 10.6126521,16.533314 10.4537664,16.2685045 L14.4722504,16.2685045 C14.3133647,16.5366241 14.2239915,16.8477753 14.2239915,17.1787872 C14.2239915,18.1751329 15.0349706,18.9828018 16.0280062,18.9828018 C17.0210418,18.9828018 17.8320209,18.1718228 17.8320209,17.1787872 C17.8320209,16.1857516 17.0210418,15.3747725 16.0280062,15.3747725 L7.58720362,15.3747725 C7.07082511,15.3747725 6.65375016,14.9543874 6.65375016,14.441319 L6.65375016,13.2298156 C6.92517989,13.3887013 7.2462614,13.4813846 7.58720362,13.4813846 Z M9.81160336,17.175477 C9.81160336,17.6786151 9.40114865,18.0857597 8.90132073,18.0857597 C8.40149281,18.0857597 7.9910381,17.675305 7.9910381,17.175477 C7.9910381,16.6756491 8.40149281,16.2651944 8.90132073,16.2651944 C9.40114865,16.2651944 9.81160336,16.672339 9.81160336,17.175477 Z M16.941599,17.175477 C16.941599,17.6786151 16.5311443,18.0857597 16.0313163,18.0857597 C15.5314884,18.0857597 15.1210337,17.675305 15.1210337,17.175477 C15.1210337,16.6756491 15.5314884,16.2651944 16.0313163,16.2651944 C16.5311443,16.2651944 16.941599,16.672339 16.941599,17.175477 Z M16.4616318,12.5876526 L7.58720362,12.5876526 C7.07082511,12.5876526 6.65375016,12.1672675 6.65375016,11.6541991 L6.65375016,9.4529702 L6.65375016,6.99024191 L6.65375016,6.82473598 L17.3950852,8.30435902 L17.3950852,11.650889 C17.3950852,12.1705776 16.9747002,12.5876526 16.4616318,12.5876526 Z" id="Shape" transform="translate(10.805156, 10.929800) rotate(-36.000000) translate(-10.805156, -10.929800) "></path>
                    </g>
                </g>
                <polygon id="Path-8" points="22.1917514 21.1195162 22.5260022 18.6138396 23.0846123 18.6883568 22.8809137 20.2153624 24.0962113 19.7003087 23.7125532 22.2319671 23.1553568 22.1475272 23.3879741 20.6125467"></polygon>
            </g>
        </g>
    </g>
</svg>