<?xml version="1.0" encoding="UTF-8"?>
<svg width="48px" height="48px" viewBox="0 0 48 48" version="1.1" xmlns="http://www.w3.org/2000/svg" xmlns:xlink="http://www.w3.org/1999/xlink">
    <!-- Generator: Sketch 48.2 (47327) - http://www.bohemiancoding.com/sketch -->
    <title>login</title>
    <desc>Created with Sketch.</desc>
    <defs></defs>
    <g id="Symbols" stroke="none" stroke-width="1" fill="none" fill-rule="evenodd">
        <g id="login" fill="#F58025" fill-rule="nonzero">
            <g transform="translate(1.500000, 1.500000)" id="Shape">
                <path d="M25.2092261,23.325467 C28.373005,21.9681666 30.1491815,18.5761285 29.4625845,15.2026518 C28.7759875,11.829175 25.8152805,9.40122533 22.3726654,9.38851113 C18.9300502,9.37579692 15.9514905,11.7818118 15.2399948,15.1501251 C14.5284992,18.5184385 16.2795728,21.9235034 19.4332399,23.3041352 C14.0084074,24.6168594 9.96029438,29.6134156 9.96029438,35.5551332 L9.96029438,36.3755858 L34.5919219,36.3755858 L34.5919219,35.5551332 C34.5919219,29.6445928 30.5881133,24.674291 25.2092261,23.325467 Z M16.7241055,16.6551875 C16.7241055,13.5512918 19.2403101,11.0350873 22.3442057,11.0350873 C25.4481013,11.0350873 27.9643059,13.5512918 27.9643059,16.6551875 C27.9643059,19.7590831 25.4481013,22.2752877 22.3442057,22.2752877 C19.241435,22.2725735 16.7268197,19.7579582 16.7241055,16.6551875 Z M11.6372995,34.7346806 C12.0491667,29.0784805 16.6666738,24.6037321 22.2834922,24.6037321 C27.9003106,24.6037321 32.5178178,29.0784805 32.928044,34.7346806 L11.6372995,34.7346806 Z"></path>
                <path d="M22.4410191,44.8820382 C10.0669532,44.8820382 0,34.815085 0,22.4410191 C0,10.0669532 10.0669532,0 22.4410191,0 C34.815085,0 44.8820382,10.0669532 44.8820382,22.4410191 C44.8820382,34.815085 34.815085,44.8820382 22.4410191,44.8820382 Z M22.4410191,1.64090517 C10.9534334,1.64090517 1.64090517,10.9534334 1.64090517,22.4410191 C1.64090517,33.9286048 10.9534334,43.241133 22.4410191,43.241133 C33.9286048,43.241133 43.241133,33.9286048 43.241133,22.4410191 C43.2284723,10.9586817 33.9233565,1.65356587 22.4410191,1.64090517 Z"></path>
            </g>
        </g>
    </g>
</svg>