<?xml version="1.0" encoding="UTF-8"?>
<svg width="48px" height="48px" viewBox="0 0 48 48" version="1.1" xmlns="http://www.w3.org/2000/svg" xmlns:xlink="http://www.w3.org/1999/xlink">
    <!-- Generator: Sketch 48.2 (47327) - http://www.bohemiancoding.com/sketch -->
    <title>organize-my-move</title>
    <desc>Created with Sketch.</desc>
    <defs></defs>
    <g id="Symbols" stroke="none" stroke-width="1" fill="none" fill-rule="evenodd">
        <g id="organize-my-move" fill="#F48120" fill-rule="nonzero">
            <g transform="translate(-0.034091, 1.500000)" id="Shape">
                <path d="M47.6489479,10.2379837 C47.4065238,9.98774945 47.0346748,9.91337964 46.7146548,10.0511251 L40.3988334,12.725072 L27.3187301,7.43323587 L22.5557039,0.373717238 C22.3318432,0.0407214168 21.904246,-0.0882612728 21.5335873,0.0654005167 L1.1772093,8.59549648 C0.944027767,8.69191298 0.766623099,8.88815722 0.694150228,9.12985424 C0.621677357,9.37155127 0.661833423,9.63303111 0.803492062,9.84184347 L5.36097378,16.5837024 L0.373717238,22.708928 C0.2061803,22.9157856 0.146485878,23.1897557 0.21277885,23.4475617 C0.279071821,23.7053677 0.463521754,23.9165579 0.710062753,24.0169383 L6.04674491,26.1863669 L6.04674491,36.9232631 L24.6317032,44.3658419 L45.3730099,35.6600989 L45.3730099,16.0399439 C45.4583278,15.9663518 45.5276477,15.8760452 45.5766858,15.7746046 L47.792829,11.176014 C47.9422107,10.8634825 47.8851343,10.4913743 47.6489479,10.2379837 Z M2.77298191,9.7428084 L21.5466674,1.88353488 L25.49499,7.72847249 L6.72691029,15.5896146 L2.77298191,9.7428084 Z M2.39926467,22.8901808 L6.65216684,17.6581395 L22.9723986,24.3551524 L18.6466216,29.4918959 L7.73034107,25.0558722 L2.39926467,22.8901808 Z M23.598375,42.1366186 L7.73220966,35.7834256 L7.73220966,26.872138 L18.5812211,31.2782642 C18.6812074,31.3202475 18.7885693,31.341847 18.8970121,31.3417962 C19.1448116,31.3414896 19.3799175,31.232138 19.5398058,31.0428224 L23.598375,26.2274758 L23.598375,42.1366186 Z M24.1047619,23.0041646 L8.39368917,16.7107663 L26.7712344,9.01779696 L38.1976389,13.6406792 L28.4492248,17.7702547 C28.3215204,17.8241942 28.2091716,17.9089373 28.1222222,18.0169081 L24.1047619,23.0041646 Z M43.6931509,34.5445529 L25.2819712,42.2730254 L25.2819712,24.7699785 L43.6875451,17.0639291 L43.6931509,34.5445529 Z M44.4050822,14.341399 L44.3677105,14.3264503 L43.9510158,15.1355481 L26.8310291,22.2903647 L29.2975629,19.2464378 L40.4044392,14.5376006 L45.3076094,12.4616013 L44.4050822,14.341399 Z"></path>
                <path d="M33.8363587,36.2711266 C33.5382116,36.2742387 33.2607119,36.1192292 33.1070257,35.8637259 C32.9533395,35.6082225 32.9464522,35.2904387 33.0889243,35.0285167 L35.5442465,30.5102753 L31.6445071,30.5102753 L35.6451502,23.1499143 C35.8670284,22.7417616 36.3777693,22.5907563 36.785922,22.8126345 C37.1940747,23.0345127 37.3450801,23.5452537 37.1232019,23.9534064 L34.471678,28.8285478 L38.3826289,28.8285478 L34.5688445,35.8320088 C34.4224198,36.1004208 34.1421007,36.2684693 33.8363587,36.2711266 Z"></path>
            </g>
        </g>
    </g>
</svg>