<?xml version="1.0" encoding="UTF-8"?>
<svg width="48px" height="48px" viewBox="0 0 48 48" version="1.1" xmlns="http://www.w3.org/2000/svg" xmlns:xlink="http://www.w3.org/1999/xlink">
    <!-- Generator: Sketch 48.2 (47327) - http://www.bohemiancoding.com/sketch -->
    <title>sign-up</title>
    <desc>Created with Sketch.</desc>
    <defs></defs>
    <g id="Symbols" stroke="none" stroke-width="1" fill="none" fill-rule="evenodd">
        <g id="sign-up" fill-rule="nonzero">
            <g transform="translate(6.967290, 1.878981)">
                <path d="M24.1655047,29.8465594 L6.1906342,29.8465594 C5.86554659,29.8465594 5.60201101,29.5830238 5.60201101,29.2579362 C5.60201101,28.9328486 5.86554659,28.669313 6.1906342,28.669313 L24.1655047,28.669313 C24.4905923,28.669313 24.7541279,28.9328486 24.7541279,29.2579362 C24.7541279,29.5830238 24.4905923,29.8465594 24.1655047,29.8465594 Z" id="Shape" fill="#F48022"></path>
                <path d="M24.1655047,23.9990084 L6.1906342,23.9990084 C5.86554659,23.9990084 5.60201101,23.7354729 5.60201101,23.4103853 C5.60201101,23.0852976 5.86554659,22.8217621 6.1906342,22.8217621 L24.1655047,22.8217621 C24.4905923,22.8217621 24.7541279,23.0852976 24.7541279,23.4103853 C24.7541279,23.7354729 24.4905923,23.9990084 24.1655047,23.9990084 Z" id="Shape" fill="#F48022"></path>
                <path d="M24.1655047,35.6924286 L6.1906342,35.6924286 C5.86554659,35.6924286 5.60201101,35.428893 5.60201101,35.1038054 C5.60201101,34.7787178 5.86554659,34.5151822 6.1906342,34.5151822 L24.1655047,34.5151822 C24.4905923,34.5151822 24.7541279,34.7787178 24.7541279,35.1038054 C24.7541279,35.428893 24.4905923,35.6924286 24.1655047,35.6924286 Z" id="Shape" fill="#F48022"></path>
                <rect id="Rectangle-path" fill="#F48022" transform="translate(25.731363, 8.387359) rotate(-45.000000) translate(-25.731363, -8.387359) " x="16.8498799" y="5.64437503" width="17.7629662" height="5.48596815"></rect>
                <path d="M28.4506816,11.3469734 L28.4506816,43.3899382 L1.51360249,43.3899382 L1.51360249,11.4512438 L7.51755906,11.4512438 L7.51755906,5.38169776 L23.2960242,5.38169776 L24.8096267,3.86809526 L6.44458307,3.86809526 L0,10.3833131 L0,44.9035407 L29.9642841,44.9035407 L29.9642841,9.83337087 L28.4506816,11.3469734 Z M2.56976068,9.93764127 L6.00395656,6.46476443 L6.00395656,9.93764127 L2.56976068,9.93764127 Z" id="Shape" fill="#F48022"></path>
                <path d="M16.7034444,13.6325131 L16.0694132,17.3711113 C15.9903695,18.0051426 16.29309,18.2120016 16.8262144,18.1279125 L20.507632,17.4905177 L16.7034444,13.6325131 Z" id="Shape" fill="#F48120"></path>
            </g>
        </g>
    </g>
</svg>